<svg xmlns="http://www.w3.org/2000/svg" width="840" height="520" viewBox="0 0 840 520">
<rect width="840" height="520" fill="#ffffff"/>
<text x="420.0" y="48" text-anchor="middle" font-family="Segoe UI, Arial" font-size="26" font-weight="700" fill="#111827">Training Accuracy History</text>
<line x1="70" y1="410" x2="770" y2="410" stroke="#9ca3af"/>
<line x1="70" y1="80" x2="70" y2="410" stroke="#9ca3af"/>
<text x="55" y="85" text-anchor="end" font-size="12" fill="#6b7280">100%</text>
<text x="55" y="250.0" text-anchor="end" font-size="12" fill="#6b7280">50%</text>
<text x="55" y="415" text-anchor="end" font-size="12" fill="#6b7280">0%</text>
<polyline points="70.0,192.6 116.7,144.3 163.3,126.7 210.0,112.9 256.7,104.5 303.3,106.8 350.0,98.4 396.7,100.7 443.3,97.6 490.0,88.4 536.7,90.0 583.3,86.1 630.0,91.5 676.7,93.0 723.3,86.9 770.0,87.7" fill="none" stroke="#2563eb" stroke-width="3"/>
<polyline points="70.0,165.6 116.7,245.0 163.3,245.0 210.0,245.0 256.7,241.9 303.3,125.8 350.0,101.4 396.7,95.3 443.3,89.2 490.0,89.2 536.7,86.1 583.3,86.1 630.0,86.1 676.7,86.1 723.3,86.1 770.0,86.1" fill="none" stroke="#dc2626" stroke-width="3"/>
<rect x="250" y="445" width="18" height="4" fill="#2563eb"/>
<text x="276" y="451" font-size="14" fill="#374151">Training Accuracy</text>
<rect x="425" y="445" width="18" height="4" fill="#dc2626"/>
<text x="451" y="451" font-size="14" fill="#374151">Validation Accuracy</text>
<text x="420.0" y="485" text-anchor="middle" font-size="14" fill="#374151">Epoch</text>
</svg>
