<svg xmlns="http://www.w3.org/2000/svg" width="840" height="520" viewBox="0 0 840 520">
<rect width="840" height="520" fill="#ffffff"/>
<text x="420.0" y="48" text-anchor="middle" font-family="Segoe UI, Arial" font-size="26" font-weight="700" fill="#111827">Training Accuracy History</text>
<line x1="70" y1="410" x2="770" y2="410" stroke="#9ca3af"/>
<line x1="70" y1="80" x2="70" y2="410" stroke="#9ca3af"/>
<text x="55" y="85" text-anchor="end" font-size="12" fill="#6b7280">100%</text>
<text x="55" y="250.0" text-anchor="end" font-size="12" fill="#6b7280">50%</text>
<text x="55" y="415" text-anchor="end" font-size="12" fill="#6b7280">0%</text>
<polyline points="70.0,238.8 99.2,220.1 128.3,183.0 157.5,172.3 186.7,155.8 215.8,151.4 245.0,143.5 274.2,134.9 303.3,130.4 332.5,121.6 361.7,120.6 390.8,115.9 420.0,118.9 449.2,114.2 478.3,112.0 507.5,112.0 536.7,108.4 565.8,108.0 595.0,106.9 624.2,107.3 653.3,105.6 682.5,106.9 711.7,101.1 740.8,99.0 770.0,102.4" fill="none" stroke="#2563eb" stroke-width="3"/>
<polyline points="70.0,251.1 99.2,208.6 128.3,212.0 157.5,181.0 186.7,142.6 215.8,142.0 245.0,130.5 274.2,129.2 303.3,128.5 332.5,125.1 361.7,116.4 390.8,120.4 420.0,128.5 449.2,107.6 478.3,111.6 507.5,114.4 536.7,111.0 565.8,113.7 595.0,110.3 624.2,104.3 653.3,113.0 682.5,104.3 711.7,106.9 740.8,104.9 770.0,106.9" fill="none" stroke="#dc2626" stroke-width="3"/>
<rect x="250" y="445" width="18" height="4" fill="#2563eb"/>
<text x="276" y="451" font-size="14" fill="#374151">Training Accuracy</text>
<rect x="425" y="445" width="18" height="4" fill="#dc2626"/>
<text x="451" y="451" font-size="14" fill="#374151">Validation Accuracy</text>
<text x="420.0" y="485" text-anchor="middle" font-size="14" fill="#374151">Epoch</text>
</svg>
